<mxfile host="app.diagrams.net" modified="2023-07-21T08:09:39.243Z" agent="Mozilla/5.0 (Windows NT 10.0; Win64; x64) AppleWebKit/537.36 (KHTML, like Gecko) Chrome/113.0.0.0 Safari/537.36 OPR/99.0.0.0" version="21.6.5" etag="61aoNGsP8AH1XIvWEiaK" type="github">
  <diagram name="Page-1" id="dx5Og-3cXGzUxR-ECMFz">
    <mxGraphModel>
      <root>
        <mxCell id="0" />
        <mxCell id="1" parent="0" />
      </root>
    </mxGraphModel>
  </diagram>
</mxfile>
